# AST/ASF file generated using VICON BodyLanguage
# -----------------------------------------------
:version 1.10
:name VICON
:units
  mass 1.0
  length 0.45
  angle deg
:documentation
   .ast/.asf automatically generated from VICON data using
   VICON BodyBuilder and BodyLanguage model FoxedUp or BRILLIANT.MOD
:root
   order TX TY TZ RX RY RZ
   axis XYZ
   position 0 0 0  
   orientation 0 0 0 
:bonedata
  begin
     id 1 
     name lhipjoint
     direction 0.643824 -0.71708 0.266994 
     length 2.52133 
     axis 0 0 0  XYZ
  end
  begin
     id 2 
     name lfemur
     direction 0.34202 -0.939693 0  
     length 7.51824  
     axis 0 0 20  XYZ
    dof rx ry rz
    limits (-160.0 20.0)
           (-70.0 70.0)
           (-60.0 70.0)
  end
  begin
     id 3 
     name ltibia
     direction 0.34202 -0.939693 0   
     length 7.3685   
     axis 0 0 20   XYZ
    dof rx
    limits (-10.0 170.0)
  end
  begin
     id 4 
     name lfoot
     direction 0.105419 -0.289636 0.951314   
     length 2.20972   
     axis -90 7.62852e-016 20   XYZ
    dof rx rz
    limits (-45.0 90.0)
           (-70.0 20.0)
  end
  begin
     id 5 
     name ltoes
     direction 1.53549e-011 -4.21833e-011 1   
     length 1.10139   
     axis -90 7.62852e-016 20   XYZ
    dof rx
    limits (-90.0 20.0)
  end
  begin
     id 6 
     name rhipjoint
     direction -0.608823 -0.743445 0.276811   
     length 2.43192  
     axis 0 0 0  XYZ 
  end
  begin
     id 7 
     name rfemur
     direction -0.34202 -0.939693 0   
     length 7.69715   
     axis 0 0 -20   XYZ
    dof rx ry rz
    limits (-160.0 20.0)
           (-70.0 70.0)
           (-70.0 60.0)
  end
  begin
     id 8 
     name rtibia
     direction -0.34202 -0.939693 0   
     length 7.44924   
     axis 0 0 -20   XYZ
    dof rx
    limits (-10.0 170.0)
 end
 begin
     id 9 
     name rfoot
     direction -0.103614 -0.284677 0.953007   
     length 2.22623  
     axis -90 -7.62852e-016 -20   XYZ
    dof rx rz
    limits (-45.0 90.0)
           (-20.0 70.0)
  end
  begin
     id 10 
     name rtoes
     direction -1.53537e-011 -4.22026e-011 1   
     length 1.11   
     axis -90 -7.62852e-016 -20   XYZ
    dof rx
    limits (-90.0 20.0)
  end
  begin
     id 11 
     name lowerback
     direction -0.0101212 0.99662 -0.0815298   
     length 2.08277   
     axis 0 0 0   XYZ
    dof rx ry rz
    limits (-20.0 45.0)
           (-30.0 30.0)
           (-30.0 30.0)
  end
  begin
     id 12 
     name upperback
     direction 0.024314 0.999591 -0.0150645   
     length 2.08524   
     axis 0 0 0   XYZ
    dof rx ry rz
    limits (-20.0 45.0)
           (-30.0 30.0)
           (-30.0 30.0)
  end
  begin
     id 13 
     name thorax
     direction 0.0285959 0.999323 0.0231357   
     length 2.09645   
     axis 0 0 0   XYZ
    dof rx ry rz
    limits (-20.0 45.0)
           (-30.0 30.0)
           (-30.0 30.0)
  end
  begin
     id 14 
     name lowerneck
     direction -0.065512 0.979301 0.191515   
     length 1.63798   
     axis 0 0 0   XYZ
    dof rx ry rz
    limits (-20.0 45.0)
           (-30.0 30.0)
           (-30.0 30.0)
  end
  begin
     id 15 
     name upperneck
     direction 0.0498479 0.98191 -0.182667   
     length 1.68731   
     axis 0 0 0   XYZ
    dof rx ry rz
    limits (-20.0 45.0)
           (-30.0 30.0)
           (-30.0 30.0)
  end
  begin
     id 16
     name head
     direction 0.0230358 0.996257 -0.0833175  
     length 1.69785  
     axis 0 0 0   XYZ
    dof rx ry rz
    limits (-20.0 45.0)
           (-30.0 30.0)
           (-30.0 30.0)
  end
  begin
     id 17 
     name lclavicle
     direction 0.967963 0.201165 -0.150269  
     length 3.63976  
     axis 0 0 0   XYZ
    dof ry rz
    limits (-20.0 10.0)
           (0.0 20.0)
  end
  begin
     id 18 
     name lhumerus
     direction 1 -4.48954e-011 -2.92837e-028   
     length 5.32462   
     axis 180 -30 -90   XYZ
    dof rx ry rz
    limits (-60.0 90.0)
           (-90.0 90.0)
           (-90.0 90.0)
  end
  begin
     id 19
     name lradius
     direction 1 -4.48958e-011 -6.39511e-027   
     length 3.48402   
     axis 180 -30 -90   XYZ
    dof rx
    limits (-10.0 170.0)
  end
  begin
     id 20
     name lwrist
     direction 1 -4.48975e-011 -1.1413e-026   
     length 1.74201   
     axis 6.88575e-015 90 90   XYZ
    dof ry
    limits (-180.0 0.0)
 end
  begin
     id 21 
     name lhand
     direction 1 -4.48899e-011 -2.28192e-026   
     length 0.572476   
     axis 1.45643e-014 90 90   XYZ
    dof rx rz
    limits (-90.0 90.0)
           (-45.0 45.0)
  end
  begin
     id 22 
     name lfingers
     direction 1 -4.49155e-011 -4.5684e-026   
     length 0.461545   
     axis 2.91283e-014 90 90   XYZ
    dof rx
    limits (0.0 90.0)
  end
  begin
     id 23
     name lthumb
     direction 0.707107 -6.34943e-011 0.707107   
     length 0.662688   
     axis -90 45 -2.25915e-014   XYZ
    dof rx rz
    limits (-45.0 45.0)
           (-45.0 45.0)
  end
  begin
     id 24 
     name rclavicle
     direction -0.964103 0.264019 -0.0282629   
     length 3.54491  
     axis 0 0 0   XYZ 
    dof ry rz
    limits (-10.0 20.0)
           (-20.0 0.0)
  end
  begin
     id 25 
     name rhumerus
     direction -1 -4.48964e-011 -2.45032e-027  
     length 5.33589   
     axis 180 30 90   XYZ
    dof rx ry rz
    limits (-90.0 60.0)
           (-90.0 90.0)
           (-90.0 90.0)
  end
  begin
     id 26 
     name rradius
     direction -1 -4.48987e-011 -1.55093e-027   
     length 3.64134   
     axis 180 30 90   XYZ
    dof rx
    limits (-10.0 170.0)
  end
  begin
     id 27 
     name rwrist
     direction -1 -4.4897e-011 -1.14128e-026   
     length 1.82067   
     axis 6.88575e-015 -90 -90   XYZ
    dof ry
    limits (-180.0 0.0)
  end
  begin
     id 28
     name rhand
     direction -1 -4.49021e-011 -2.28301e-026   
     length 0.734811   
     axis 1.45643e-014 -90 -90   XYZ
    dof rx rz
    limits (-90.0 90.0)
           (-45.0 45.0)
  end
  begin
     id 29
     name rfingers
     direction -1 -4.48862e-011 -4.56319e-026   
     length 0.592424   
     axis 2.91283e-014 -90 -90   XYZ
    dof rx
    limits (0.0 90.0)
  end
  begin
     id 30
     name rthumb
     direction -0.707107 -6.34978e-011 0.707107   
     length 0.850605   
     axis -90 -45 2.25915e-014   XYZ
    dof rx rz
    limits (-45.0 45.0)
           (-45.0 45.0)
  end
:hierarchy
  begin
    root lhipjoint rhipjoint lowerback
    lhipjoint lfemur
    lfemur ltibia
    ltibia lfoot
    lfoot ltoes
    rhipjoint rfemur
    rfemur rtibia
    rtibia rfoot
    rfoot rtoes
    lowerback upperback
    upperback thorax
    thorax lowerneck lclavicle rclavicle
    lowerneck upperneck
    upperneck head
    lclavicle lhumerus
    lhumerus lradius
    lradius lwrist
    lwrist lhand lthumb
    lhand lfingers
    rclavicle rhumerus
    rhumerus rradius
    rradius rwrist
    rwrist rhand rthumb
    rhand rfingers
  end

#!OML:ASF F:\VICON\USERDATA\INSTALL\rory3\rory3.ASF
:FULLY-SPECIFIED
:DEGREES
83
root -0.810591 17.7359 13.3529 -171.3 1.05522 177.94
lowerback -0.155151 -1.72172 -4.54576
upperback -0.724929 -2.2825 2.21717
thorax -0.39054 -1.11037 4.83887
lowerneck -16.1964 -1.60187 -7.65834
upperneck 41.3127 7.03886 -1.98211
head 18.1926 2.99456 2.3651
rclavicle -9.44227e-015 -4.13472e-014
rhumerus -33.1508 -10.1994 -77.7444
rradius 33.1415
rwrist 18.9217
rhand -20.399 2.06836
rfingers 7.12502
rthumb 5.9546 -27.828
lclavicle -9.44227e-015 -4.13472e-014
lhumerus -27.5663 8.09977 84.7464
lradius 38.9059
lwrist -9.68984
lhand -15.4421 32.9864
lfingers 7.12502
lthumb 10.7383 62.6919
rfemur -19.4071 3.21924 20.8755
rtibia 33.9504
rfoot -21.755 -4.6616
rtoes 11.1456
lfemur -12.2592 0.234261 -24.3705
ltibia 21.7056
lfoot -14.1859 5.02399
ltoes -14.754
84
root -0.801665 17.7379 13.361 -171.316 0.984598 178.048
lowerback 0.0417226 -1.72766 -4.3932
upperback -0.646047 -2.29706 2.24975
thorax -0.422516 -1.11919 4.79129
lowerneck -16.1799 -1.64173 -7.71735
upperneck 41.3901 7.06852 -2.02687
head 18.2388 2.99449 2.36524
rclavicle 2.48481e-015 -2.78299e-014
rhumerus -33.1488 -10.1539 -77.7317
rradius 33.113
rwrist 18.8559
rhand -20.3649 2.09173
rfingers 7.12502
rthumb 5.98749 -27.8037
lclavicle 2.48481e-015 -2.78299e-014
lhumerus -27.6432 9.05835 84.4373
lradius 36.8793
lwrist -9.50604
lhand -15.1104 33.1967
lfingers 7.12502
lthumb 11.0583 62.8854
rfemur -19.3978 3.2361 21.0278
rtibia 33.9253
rfoot -21.7865 -4.69508
rtoes 11.4781
lfemur -12.3025 0.110551 -24.1987
ltibia 21.7591
lfoot -14.198 5.09006
ltoes -14.793
85
root -0.791323 17.737 13.3694 -171.264 1.03794 178.123
lowerback 0.173219 -1.67897 -4.33665
upperback -0.636224 -2.23584 2.28346
thorax -0.493995 -1.08669 4.79885
lowerneck -15.9644 -1.67889 -7.76988
upperneck 41.4117 7.08808 -2.08355
head 18.1996 3.0046 2.3498
rclavicle 1.19271e-015 -1.35174e-014
rhumerus -33.283 -10.0532 -77.7012
rradius 33.1556
rwrist 18.6762
rhand -20.2779 1.78882
rfingers 7.12502
rthumb 6.07156 -28.1042
lclavicle 1.19271e-015 -1.35174e-014
lhumerus -27.6981 10.0445 84.1001
lradius 34.8175
lwrist -9.40821
lhand -14.6762 33.7124
lfingers 7.12502
lthumb 11.477 63.3782
rfemur -19.4986 3.31817 21.1321
rtibia 33.9437
rfoot -21.7709 -4.70925
rtoes 11.5633
lfemur -12.3815 0.12108 -24.0834
ltibia 21.7491
lfoot -14.1902 5.11731
ltoes -15.1504
86
root -0.778656 17.7381 13.3762 -171.145 1.18852 178.048
lowerback 0.141482 -1.63141 -4.4192
upperback -0.608059 -2.17297 2.24339
thorax -0.453023 -1.0572 4.80252
lowerneck -15.7887 -1.69031 -7.76623
upperneck 41.4459 7.10706 -2.10116
head 18.1752 3.02395 2.34324
rclavicle -1.63003e-014 1.11319e-014
rhumerus -33.3694 -9.97856 -77.7368
rradius 33.1455
rwrist 18.59
rhand -20.1887 1.68109
rfingers 7.12502
rthumb 6.15767 -28.2094
lclavicle -1.63003e-014 1.11319e-014
lhumerus -27.7663 11.2761 83.5924
lradius 32.8021
lwrist -9.54317
lhand -14.0727 33.9914
lfingers 7.12502
lthumb 12.059 63.624
rfemur -19.6971 3.42795 21.0552
rtibia 33.9923
rfoot -21.7396 -4.62861
rtoes 11.7774
lfemur -12.5285 0.230426 -24.1568
ltibia 21.7206
lfoot -14.0489 5.19883
ltoes -15.5757
87
root -0.772519 17.7412 13.389 -170.927 1.17755 177.762
lowerback 0.10081 -1.66656 -4.58813
upperback -0.604638 -2.22236 2.14305
thorax -0.418756 -1.0836 4.79222
lowerneck -15.7433 -1.68719 -7.77671
upperneck 41.4802 7.17074 -2.15562
head 18.1875 3.04428 2.33327
rclavicle -1.64991e-014 1.59028e-015
rhumerus -33.4333 -9.95706 -77.7589
rradius 33.1843
rwrist 18.6755
rhand -20.1567 1.64634
rfingers 7.12502
rthumb 6.18852 -28.2433
lclavicle -1.64991e-014 1.59028e-015
lhumerus -27.8853 12.5068 83.0522
lradius 30.6691
lwrist -9.13133
lhand -14.7333 32.0917
lfingers 7.12502
lthumb 11.422 61.7606
rfemur -20.0248 3.04153 20.7605
rtibia 34.0558
rfoot -21.528 -4.35284
rtoes 11.6664
lfemur -12.7892 0.22426 -24.466
ltibia 21.6899
lfoot -13.838 5.09104
ltoes -15.3699
